<svg width="150" height="150" viewBox="0 0 150 150" fill="none" xmlns="http://www.w3.org/2000/svg">
<path d="M126.562 100.781C133.035 100.781 138.281 95.5346 138.281 89.0625C138.281 82.5904 133.035 77.3438 126.562 77.3438C126.48 77.3438 126.404 77.3662 126.323 77.3679C126.48 76.603 126.562 75.8112 126.562 75C126.562 68.5279 121.316 63.2812 114.844 63.2812C112.19 63.2812 109.771 64.1963 107.807 65.6829C107.807 65.6632 107.812 65.6449 107.812 65.625C107.812 59.1529 102.566 53.9062 96.0938 53.9062C92.1265 53.9062 88.6342 55.8895 86.514 58.9062C85.5487 53.4066 80.7763 49.2188 75 49.2188C69.2237 49.2188 64.4513 53.4066 63.486 58.9062C61.3658 55.8895 57.8735 53.9062 53.9062 53.9062C47.4342 53.9062 42.1875 59.1529 42.1875 65.625C42.1875 65.6449 42.1932 65.6632 42.1934 65.6829C40.229 64.1963 37.8096 63.2812 35.1562 63.2812C28.6842 63.2812 23.4375 68.5279 23.4375 75C23.4375 75.8112 23.5205 76.603 23.6774 77.3679C23.5956 77.3662 23.5198 77.3438 23.4375 77.3438C16.9654 77.3438 11.7188 82.5904 11.7188 89.0625C11.7188 95.5346 16.9654 100.781 23.4375 100.781H126.562Z" fill="white"/>
<path d="M7.03125 11.7188H16.4062V35.1562H7.03125V11.7188Z" fill="#006634"/>
<path d="M16.4062 7.03125H28.125V39.8438H16.4062V7.03125Z" fill="#006634"/>
<path d="M142.969 35.1562H133.594V11.7188H142.969V35.1562Z" fill="#006634"/>
<path d="M133.594 39.8438H121.875V7.03125H133.594V39.8438Z" fill="#006634"/>
<path d="M28.125 18.75H121.875V28.125H28.125V18.75Z" fill="#019934"/>
<path d="M107.812 142.969H79.6875V128.906H93.75C101.508 128.906 107.812 135.211 107.812 142.969Z" fill="#006634"/>
<path d="M70.3125 128.906V142.969H42.1875C42.1875 135.211 48.4922 128.906 56.25 128.906H70.3125Z" fill="#006634"/>
<path d="M79.6875 100.781H91.4062V128.906H79.6875V100.781Z" fill="#019934"/>
<path d="M58.5938 100.781H70.3125V128.906H58.5938V100.781Z" fill="#019934"/>
<path d="M142.969 9.375H135.938V7.03125C135.938 5.73579 134.889 4.6875 133.594 4.6875H121.875C120.58 4.6875 119.531 5.73579 119.531 7.03125V16.4062H30.4688V7.03125C30.4688 5.73579 29.4205 4.6875 28.125 4.6875H16.4062C15.1108 4.6875 14.0625 5.73579 14.0625 7.03125V9.375H7.03125C5.73579 9.375 4.6875 10.4233 4.6875 11.7188V35.1562C4.6875 36.4517 5.73579 37.5 7.03125 37.5H14.0625V39.8438C14.0625 41.1392 15.1108 42.1875 16.4062 42.1875H28.125C29.4205 42.1875 30.4688 41.1392 30.4688 39.8438V30.4688H35.1562V60.9375C27.4017 60.9375 21.0938 67.2455 21.0938 75C21.0938 75.0641 21.0938 75.1305 21.096 75.1946C14.4516 76.3138 9.375 82.1068 9.375 89.0625C9.375 96.817 15.683 103.125 23.4375 103.125H56.25V126.562C47.2046 126.562 39.8438 133.923 39.8438 142.969C39.8438 144.264 40.892 145.312 42.1875 145.312H70.3125C71.608 145.312 72.6562 144.264 72.6562 142.969V103.125H77.3438V142.969C77.3438 144.264 78.392 145.312 79.6875 145.312H107.812C109.108 145.312 110.156 144.264 110.156 142.969C110.156 133.923 102.795 126.562 93.75 126.562V103.125H126.562C134.317 103.125 140.625 96.817 140.625 89.0625C140.625 82.1068 135.548 76.3138 128.904 75.1946C128.906 75.1305 128.906 75.0641 128.906 75C128.906 67.2455 122.598 60.9375 114.844 60.9375V30.4688H119.531V39.8438C119.531 41.1392 120.58 42.1875 121.875 42.1875H133.594C134.889 42.1875 135.938 41.1392 135.938 39.8438V37.5H142.969C144.264 37.5 145.312 36.4517 145.312 35.1562V11.7188C145.312 10.4233 144.264 9.375 142.969 9.375ZM9.375 32.8125V14.0625H14.0625V32.8125H9.375ZM25.7812 37.5H18.75V35.1562V11.7188V9.375H25.7812V18.75V28.125V37.5ZM44.767 140.625C45.8565 135.283 50.5898 131.25 56.25 131.25H58.5938H67.9688V140.625H44.767ZM67.9688 126.562H60.9375V103.125H67.9688V126.562ZM105.233 140.625H82.0312V131.25H91.4062H93.75C99.4102 131.25 104.144 135.283 105.233 140.625ZM89.0625 126.562H82.0312V103.125H89.0625V126.562ZM124.219 75C124.219 75.6386 124.155 76.2772 124.026 76.8951C123.882 77.5978 124.065 78.3256 124.525 78.875C124.986 79.422 125.679 79.7127 126.386 79.7127C126.487 79.7081 126.583 79.7012 126.682 79.6875C131.797 79.7539 135.938 83.9333 135.938 89.0625C135.938 94.2329 131.733 98.4375 126.562 98.4375H91.4062H79.6875H70.3125H58.5938H23.4375C18.2671 98.4375 14.0625 94.2329 14.0625 89.0625C14.0625 83.931 18.2075 79.747 23.3254 79.6875C23.4261 79.6989 23.5474 79.7104 23.6138 79.7127C24.3301 79.7195 25.0145 79.422 25.4746 78.875C25.9346 78.3256 26.1177 77.5978 25.9735 76.8951C25.8453 76.2772 25.7812 75.6386 25.7812 75C25.7812 69.8296 29.9858 65.625 35.1562 65.625C37.1681 65.625 39.1136 66.291 40.7822 67.5522C41.5466 68.129 42.5857 68.1747 43.4051 67.6781C44.1513 67.2272 44.5793 66.3941 44.5312 65.5335C44.5816 60.4065 48.7679 56.25 53.9062 56.25C56.9435 56.25 59.8068 57.7469 61.5669 60.2531C62.1117 61.0268 63.0752 61.4044 63.9953 61.1916C64.92 60.9856 65.6296 60.244 65.7944 59.3102C66.5817 54.8218 70.4544 51.5625 75 51.5625C79.5456 51.5625 83.4183 54.8218 84.2056 59.3101C84.3704 60.244 85.0799 60.9855 86.0046 61.1915C86.9247 61.4021 87.8883 61.0267 88.4331 60.2531C90.1932 57.7469 93.0565 56.25 96.0938 56.25C101.264 56.25 105.469 60.4546 105.48 65.3915C105.363 66.3254 105.817 67.2409 106.634 67.7124C107.449 68.1839 108.469 68.1175 109.218 67.5522C110.886 66.291 112.832 65.625 114.844 65.625C120.014 65.625 124.219 69.8296 124.219 75ZM110.156 61.8017C109.996 61.8597 109.827 61.8828 109.669 61.9469C108.048 55.9708 102.576 51.5625 96.0938 51.5625C92.9489 51.5625 89.93 52.6268 87.4947 54.5197C85.1463 49.9214 80.3879 46.875 75 46.875C69.6121 46.875 64.8537 49.9214 62.5053 54.5197C60.07 52.6268 57.0511 51.5625 53.9062 51.5625C47.4243 51.5625 41.9517 55.9708 40.3313 61.9469C40.1733 61.8828 40.0035 61.8597 39.8438 61.8017V30.4688H110.156V61.8017ZM30.4688 25.7812V21.0938H119.531V25.7812H30.4688ZM131.25 37.5H124.219V28.125V18.75V9.375H131.25V11.7188V35.1562V37.5ZM140.625 32.8125H135.938V14.0625H140.625V32.8125Z" fill="#00170C"/>
<path d="M64.4531 77.3438C66.3948 77.3438 67.9688 75.7698 67.9688 73.8281C67.9688 71.8865 66.3948 70.3125 64.4531 70.3125C62.5115 70.3125 60.9375 71.8865 60.9375 73.8281C60.9375 75.7698 62.5115 77.3438 64.4531 77.3438Z" fill="#1E191A"/>
<path d="M85.5469 77.3438C87.4885 77.3438 89.0625 75.7698 89.0625 73.8281C89.0625 71.8865 87.4885 70.3125 85.5469 70.3125C83.6052 70.3125 82.0312 71.8865 82.0312 73.8281C82.0312 75.7698 83.6052 77.3438 85.5469 77.3438Z" fill="#1E191A"/>
<path d="M64.9087 85.0317L61.6541 88.4054C65.3345 91.9554 70.1662 93.7316 75.0001 93.7316C79.8341 93.7316 84.6658 91.9554 88.3462 88.4055L85.0915 85.0318C79.5251 90.4013 70.4752 90.4013 64.9087 85.0317Z" fill="#1E191A"/>
</svg>
