<svg width="413" height="541" viewBox="0 0 413 541" fill="none" xmlns="http://www.w3.org/2000/svg">
<path fill-rule="evenodd" clip-rule="evenodd" d="M403.499 299.428C398.459 299.923 393.418 300.417 388.378 300.912C364.237 302.756 340.106 306.607 316.151 308.918C315.554 307.947 314.387 308.107 313.678 308.781C311.288 308.572 308.608 306.746 306.443 308.646C306.373 308.636 306.302 308.624 306.231 308.617C302.376 301.219 299.711 293.329 297.125 285.428C295.474 280.57 293.253 275.868 289.148 272.606C282.143 267.745 266.093 257.887 257.868 258.302C257.732 256.829 257.045 255.312 255.918 254.331C258.402 250.097 248.469 247.334 247.768 247.825C248.217 233.678 241.561 221.392 226.883 218.575C213.734 215.835 195.032 215.375 187.96 229.113C187.182 229.026 179.236 228.984 178.467 229.071C177.272 227.557 164.144 241.9 169.525 246.893C121.421 268.167 94.0697 265.628 80.7555 325.434C78.9555 331.052 78.8245 337.2 76.9238 342.693C70.1617 358.479 64.677 375.288 63.3121 392.465C60.0153 393.309 59.6362 399.12 63.4548 399.961C64.9134 400.282 66.1332 400.721 67.1968 401.554C66.3653 415.63 69.7706 447.784 71.9161 447.685C76.2909 461.605 95.805 465.533 109.62 460.641C107.239 465.121 109.62 467.937 109.62 470.331C159.331 472.211 213.685 471.128 263.382 473.707C269.739 473.616 276.426 475.268 282.696 474.317C286.52 473.401 286.526 467.39 282.647 466.647L299.596 462.966C299.217 462.823 306.582 457.926 312.148 448.774C317.329 438.536 313.803 426.179 316.151 415.042C334.487 413.543 353.126 412.902 371.261 409.798C373.734 417.194 384.438 408.348 387.84 404.79C387.836 404.784 387.832 404.779 387.828 404.773C389.474 404.323 390.795 402.78 390.839 400.954C391.994 399.304 392.236 396.979 391.129 395.385C396.204 366.106 403.942 336.21 406.739 306.656C407.727 306.437 408.658 306.003 409.448 305.336L409.384 305.272C410.721 303.781 410.981 301.208 408.752 299.942C406.953 298.919 405.451 299.236 403.499 299.428Z" fill="white"/>
<path fill-rule="evenodd" clip-rule="evenodd" d="M211.796 409.014L215.679 411.485L247.448 421.719L266.863 424.189L282.747 421.719V448.892L285.924 474.301C284.512 476.889 271.099 476.889 245.683 474.301C229.481 472.652 170.268 471.851 156.787 471.499L156.023 471.478C140.181 471.021 124.531 471.021 109.075 471.478V461.95L153.199 440.07L192.734 417.837L211.796 409.014ZM189.285 226.893L192.203 229.071L185.832 239.534L216.865 264.629V284.674L226.69 293.964L232.305 284.674L240.218 274.153L245.842 257.1L243.927 245.865L247.778 245.502C247.796 246.27 247.793 247.045 247.768 247.825C248.469 247.334 258.403 250.097 255.918 254.332C257.046 255.312 257.732 256.829 257.869 258.302C266.094 257.887 282.144 267.745 289.148 272.606C293.253 275.868 295.474 280.57 297.125 285.428L297.514 286.613L297.915 287.829L298.319 289.045C300.553 295.727 302.965 302.349 306.232 308.618C306.303 308.624 306.373 308.636 306.444 308.646C308.609 306.746 311.288 308.572 313.678 308.782C314.371 308.123 315.501 307.955 316.109 308.852L316.151 308.918L286.369 314.783L266.721 383.686L249.61 369.8L240.426 371.166L216.172 379.911L187.964 387.236L123.567 404.986H115.366L67.6472 393.465L63.3467 392.046C64.7668 375.015 70.2172 358.351 76.9243 342.693C78.825 337.201 78.9561 331.053 80.756 325.434C94.0702 265.628 121.422 268.167 169.525 246.893C164.145 241.9 177.272 227.557 178.468 229.071L178.543 229.064L178.706 229.055L178.916 229.048C180.792 228.994 187.263 229.035 187.96 229.113C188.365 228.327 188.807 227.588 189.285 226.893Z" fill="#019934"/>
<path fill-rule="evenodd" clip-rule="evenodd" d="M408.259 301.52L407.372 306.463C407.161 306.532 406.947 306.59 406.729 306.638C406.45 309.584 406.123 312.534 405.753 315.486L400.253 346.132C399.304 351.554 398.404 356.987 397.51 362.422L396.325 368.26L395.592 371.889C394.008 379.747 392.469 387.579 391.119 395.368C391.323 395.661 391.481 395.979 391.596 396.313L391.492 396.752L391.42 397.045L391.346 397.334C390.281 401.428 388.427 405.398 384.059 406.603C380.764 407.511 377.149 407.593 373.747 407.952L373.37 407.993L313.834 414.686C306.64 415.495 299.45 416.328 292.26 417.17L286.028 417.901C277.341 418.906 268.603 419.698 260.044 421.518C259.73 421.585 259.469 421.711 259.257 421.876C260.98 415.353 262.63 408.839 264.125 402.25C265.808 394.835 267.406 387.405 269.206 380.016C272.833 365.131 276.898 350.343 281.349 335.682C282.283 332.605 283.238 329.534 284.215 326.471L284.9 324.329L285.427 322.622C286.243 320.02 287.253 317.346 289.646 315.911C292.446 314.231 296.265 313.952 299.442 313.371L301.593 312.967C304.811 312.367 308.033 311.79 311.259 311.235C326.704 308.579 342.237 306.449 357.828 304.848C374.05 303.183 390.33 302.1 406.629 301.571L408.259 301.52ZM260.491 403.701L260.643 403.714L258.419 421.486C258.063 421.237 257.612 421.085 257.061 421.086C249.766 421.108 242.774 418.777 236.011 416.215L234.981 415.822L232.109 414.719C229.19 413.601 226.256 412.508 223.267 411.601L222.058 411.236L221.444 411.055C219.181 410.394 216.8 409.794 214.446 409.644L214.125 409.627L214.811 409.267C214.911 409.215 214.999 409.156 215.077 409.092C216.373 409.188 217.671 409.162 219.038 408.916C221.608 408.453 224.108 407.559 226.403 406.315L227.428 405.759L227.848 405.537L228.125 405.393L228.401 405.253C230.372 404.271 232.257 403.656 234.746 404.179C237.571 404.774 240.047 406.296 242.594 407.582L243.046 407.807L243.35 407.954L243.66 408.1L243.973 408.243C247.417 409.793 252.899 411.465 254.22 406.783C254.75 404.902 254.335 403.141 253.414 401.597C255.13 401.448 258.194 403.47 260.491 403.701Z" fill="#E6E6E6"/>
<path fill-rule="evenodd" clip-rule="evenodd" d="M188.877 225.923C190.374 222.16 195.437 223.622 194.873 227.576C194.535 229.944 193.238 232.445 192.073 234.52C191.124 236.209 190.041 237.858 188.574 239.124C191.186 241.561 193.898 243.908 196.678 246.137C199.711 248.569 202.901 250.811 206.199 252.871C209.09 254.678 212.112 256.279 214.837 258.34C217.372 260.257 219.68 262.562 220.855 265.571C222.106 268.776 221.562 272.085 220.641 275.287L220.535 275.649C219.594 278.822 217.964 282.646 220.224 285.636C221.374 287.157 223.047 288.235 224.491 289.451C225.774 290.533 226.979 291.709 228.084 292.972C230.493 295.725 232.452 298.823 233.689 302.275L233.8 302.589C234.859 305.645 235.634 309.388 234.202 312.389C233.791 313.249 232.466 312.969 232.236 312.132C231.715 310.235 231.743 308.248 231.306 306.324C230.852 304.323 230.097 302.423 229.11 300.626C227.201 297.15 224.616 294.181 221.562 291.67L220.647 290.927C218.265 288.972 216.075 286.898 215.592 283.662C215.074 280.201 216.462 276.903 217.354 273.627C217.975 271.344 218.178 269.155 217.506 267.092C216.686 268.431 215.566 269.702 214.68 270.836C212.916 273.095 211.136 275.34 209.36 277.589C207.539 279.896 205.763 282.239 204.072 284.642C203.316 285.718 202.567 286.799 201.822 287.882C201.261 288.696 200.478 289.509 199.867 290.339C200.016 290.783 200.004 291.295 199.735 291.658C196.493 296.038 191.88 286.9 190.677 284.591C188.227 279.889 186.404 274.894 183.946 270.194C181.399 265.321 178.499 260.578 175.267 256.129C173.312 253.438 171.12 250.911 169.332 248.134C165.118 251.954 159.573 254.515 154.48 256.837C148.884 259.388 143.071 261.472 137.334 263.685L135.639 264.343C125.753 268.2 115.626 272.437 107.41 279.288C97.7542 287.339 92.0421 298.56 87.7896 310.18C82.8943 323.556 78.8444 337.294 75.0692 351.023C73.1372 358.048 71.3041 365.104 69.5808 372.183C68.0622 378.419 66.8035 384.718 65.0456 390.89C68.6108 390.764 72.6769 392.144 75.7208 392.542C89.593 394.358 103.279 397.252 116.376 402.262C117.993 402.881 118.462 404.496 118.109 405.805C119.042 405.542 119.974 405.275 120.907 405.013C119.885 403.448 120.373 400.648 120.453 398.913L120.458 398.793C120.541 396.481 120.792 394.166 120.955 391.857C121.265 387.457 121.668 383.089 122.204 378.714L122.341 377.62C122.949 372.86 123.398 368.072 124.062 363.32L124.14 362.777C123.822 361.561 123.452 360.36 123.063 359.164C122.027 355.979 120.566 352.981 119.285 349.897C119.134 349.533 119.651 349.325 119.893 349.543C122.062 351.494 123.786 353.969 125.17 356.558C125.194 356.436 125.215 356.313 125.24 356.191L125.398 355.414C125.788 353.518 126.262 351.524 127.425 349.986C127.549 349.823 127.794 349.788 127.911 349.986C129.024 351.869 129.149 354.255 129.32 356.398C129.514 358.822 129.538 361.277 129.504 363.709C129.437 368.46 129.102 373.224 128.836 377.968C128.574 382.629 128.06 387.231 127.397 391.846L127.271 392.712C126.947 394.909 126.682 397.133 126.255 399.315L126.134 399.909C125.906 400.991 125.765 402.516 125.311 403.783C137.008 400.522 148.724 397.334 160.461 394.203C168.945 391.939 177.437 389.71 185.926 387.466C186.374 386.659 186.932 385.905 187.628 385.231C189.921 383.011 192.96 382.02 195.748 383.729C195.975 383.869 195.994 384.224 195.748 384.358C195.214 384.65 194.679 384.949 194.153 385.261L199.25 383.881C203.06 382.849 206.916 381.559 210.815 380.839C217.997 377.296 225.722 374.731 233.288 372.196L234.18 371.895C238.054 370.574 242.061 369.096 246.064 368.364C248.994 367.828 252.433 368.475 253.612 371.476C255.103 372.459 256.507 373.614 257.861 374.75C258.84 375.571 259.779 376.443 260.734 377.293L260.91 377.448C261.69 378.124 262.308 378.578 262.5 379.655C262.598 380.212 262.245 380.964 261.558 380.89C259.458 380.666 257.749 378.231 256.325 376.778C255.224 375.654 254.115 374.492 253.11 373.257C252.524 373.576 251.722 373.519 251.349 372.813C249.416 369.154 244.121 371.689 241.191 372.557L236.994 373.799C234.895 374.421 232.798 375.046 230.704 375.682C224.949 377.429 219.222 379.384 213.414 380.989C213.934 381.56 213.862 382.576 212.875 382.962C208.329 384.745 203.342 385.668 198.62 386.891C195.638 387.664 192.658 388.442 189.679 389.224C189.168 390.052 188.801 390.988 188.646 392.077C188.078 396.083 189.174 400.704 190.242 404.578L190.403 405.156C191.281 408.271 192.572 412.09 195.26 414.056C195.917 414.536 196.752 414.87 197.594 414.945C202.857 412.238 208.118 409.53 213.383 406.828C214.358 406.327 215.26 407.005 215.478 407.811C217.335 407.506 219.187 407.026 220.874 406.454C223.709 405.492 225.922 403.656 228.579 402.387C233.721 399.931 238.972 402.947 243.575 405.241L244.636 405.762C246.701 406.763 250.995 408.687 251.986 405.948C252.944 403.299 249.915 400.467 247.959 399.274C245.627 397.853 242.912 397.092 240.276 396.458C238.771 396.096 237.248 395.8 235.716 395.585C233.978 395.34 232.182 395.377 230.509 394.813C229.677 394.534 229.549 393.213 230.509 392.995C233.085 392.409 236.16 393.048 238.848 393.702L240.253 394.048C242.962 394.712 245.696 395.546 248.164 396.872C249.957 397.836 251.851 399.301 253.088 401.093C254.162 400.096 255.499 400.129 256.891 400.499L257.647 400.71C258.895 401.055 259.907 401.293 261.122 401.054C261.284 400.17 261.448 399.287 261.625 398.403C263.355 389.717 265.253 381.064 267.348 372.457C270.96 357.611 275.14 342.928 279.853 328.396L280.326 326.943C281.413 323.619 282.287 319.997 284.04 316.944C285.697 314.056 288.352 312.393 291.507 311.512C295.087 310.513 298.849 309.99 302.501 309.315C303.315 309.164 304.132 309.021 304.948 308.873C304.259 307.63 303.744 306.218 303.281 305.134L303.2 304.946C302.204 302.678 301.31 300.368 300.447 298.046L299.801 296.301C298.242 292.097 296.633 287.963 294.441 284.032C292.134 279.894 289.073 276.512 285.257 273.712C277.478 268.003 268.102 265.092 260.556 258.991C260.247 258.741 260.644 258.314 260.957 258.472C266.052 261.031 271.552 262.771 276.851 264.855L277.897 265.267C282.085 266.927 286.339 268.734 289.964 271.422C294.006 274.418 297.189 278.14 299.582 282.566C301.94 286.929 303.448 291.812 305.112 296.471L305.556 297.713C306.228 299.575 306.921 301.431 307.715 303.243C308.345 304.681 309.522 306.323 310.057 307.966C311.52 307.713 312.983 307.458 314.447 307.214C346.17 301.919 378.246 298.808 410.395 297.897C411.652 297.862 412.303 299.062 412.117 300.159C409.032 318.397 406.291 336.698 403.282 354.95C401.969 362.916 400.63 370.876 399.259 378.832C398.565 382.863 397.762 386.878 397.105 390.915C396.574 394.175 396.188 397.461 395.277 400.645C394.459 403.501 393.205 406.254 391.144 408.433C388.923 410.781 385.823 411.918 382.703 412.455C374.781 413.818 366.656 414.374 358.67 415.282L316.153 420.118C316.775 425.764 316.821 431.322 316.536 437.034L316.374 440.152C316.241 442.66 316.082 445.171 315.722 447.654C315.27 450.767 313.845 453.404 311.747 455.729C309.82 457.865 307.479 459.688 305.202 461.434C302.838 463.247 300.396 464.997 297.616 466.118L297.256 466.261C294.818 467.213 290.244 468.687 286.912 468.148C287.347 470.33 288.19 472.676 287.443 474.835C287.096 475.838 285.785 476.338 284.981 475.485C283.39 473.794 283.265 471.561 282.888 469.355C282.496 467.06 282.158 464.757 281.858 462.448C281.277 457.983 280.825 453.477 280.687 448.975C280.545 444.351 280.599 439.721 280.849 435.103C280.977 432.731 281.136 430.36 281.437 428.004C281.565 426.998 281.696 425.993 281.846 424.99C281.901 424.624 281.962 424.261 282.027 423.898L278.211 424.328C272.36 424.981 266.505 425.571 260.613 425.662C259.915 425.673 259.378 425.355 259.027 424.893C258.653 425.501 258.002 425.937 257.07 425.933C248.841 425.903 241.177 423.213 233.692 420.042C229.919 418.443 226.205 416.713 222.427 415.128C218.9 413.649 215.13 412.593 211.688 410.927L202.644 415.669C202.578 415.902 202.493 416.123 202.403 416.307C201.814 417.509 200.653 418.161 199.467 418.652C198.329 419.124 197.15 419.271 196.002 419.151C189.143 422.745 182.283 426.334 175.418 429.916L168.552 433.494C154.871 440.616 141.244 447.854 127.478 454.808L126.464 455.318C121.709 457.701 116.603 460.118 111.326 461.921C111.232 463.256 111.292 464.555 111.403 465.968L111.43 466.276C111.588 467.946 111.925 470.039 110.585 471.228C109.888 471.846 108.642 471.849 108.168 470.917C107.308 469.226 108.08 466.56 108.353 464.723C108.45 464.07 108.567 463.399 108.742 462.747C102.692 464.548 96.4595 465.421 90.3033 464.41C84.3094 463.426 79.6672 459.651 75.9248 455.034C71.9752 450.161 69.1685 444.483 67.6627 438.395C65.9489 431.469 65.837 424.315 65.8772 417.22C65.9199 409.665 66.1995 402.072 67.1187 394.568C66.1116 394.331 64.9947 394.126 63.9771 394.197C63.473 395.003 62.4952 395.343 61.6116 395.238C59.6903 397.356 64.5637 399.521 66.1211 400.064C66.6619 400.252 66.604 401.13 65.9803 401.104L65.5874 401.085C63.1809 400.957 60.6947 400.546 59.2798 398.31C58.146 396.518 58.4866 394.395 59.8382 392.934C60.7309 384.495 62.8651 376.278 64.8514 368.046C66.8006 359.966 68.9684 351.939 71.266 343.951L72.296 340.376C75.9136 327.852 79.6949 315.227 84.685 303.201C87.1768 297.196 90.0474 291.301 93.9384 286.065C97.5654 281.184 101.848 277.008 106.77 273.441C115.946 266.79 126.713 262.771 137.292 258.943L137.766 258.771C143.248 256.789 148.717 254.783 154.137 252.635C158.93 250.735 163.522 248.326 168.293 246.398C168.138 246.117 167.988 245.832 167.844 245.545L167.756 245.619C167.741 245.631 167.725 245.642 167.709 245.653C167.23 245.986 166.523 245.822 166.128 245.449C165.012 244.396 165.39 243.227 166.135 242.135L166.232 241.996C167.143 240.72 167.956 239.37 168.797 238.048L169.324 237.22C170.736 235.011 172.22 232.786 174.102 230.96C174.974 230.114 175.929 229.481 176.94 229.009C176.854 228.826 177.612 228.452 177.827 228.64C181.031 227.468 184.717 227.714 188.21 228.037M314.096 420.352L309.641 420.858C304.74 421.416 299.837 421.955 294.934 422.489L284.283 423.646C284.256 424.253 284.182 424.846 284.169 425.305C284.099 427.668 284.047 430.032 283.998 432.397C283.9 437.135 284.008 441.879 284.32 446.608C284.622 451.191 285.02 455.775 285.639 460.327L285.766 461.236L285.84 461.715C286.345 461.764 286.841 462.004 287.254 462.497C288.155 463.572 291.417 462.527 292.691 462.074C294.786 461.328 296.758 460.069 298.579 458.806C300.357 457.573 301.957 456.136 303.496 454.621L304.754 453.377C306.006 452.133 307.26 450.808 308.027 449.243C309.067 447.122 309.201 444.517 309.506 442.207C309.882 439.364 310.329 436.522 310.802 433.694M184.776 390.517L184.314 390.638C167.529 395.097 150.769 399.687 133.932 403.949C125.6 406.059 117.228 408.015 108.886 410.084L107.535 410.422C100.954 412.085 94.294 414.086 89.2542 418.859C89.0682 419.034 88.7982 418.764 88.9733 418.578C94.4048 412.797 102.13 410.35 109.547 408.229C110.918 407.837 112.291 407.454 113.662 407.064C103.575 403.469 93.3285 400.341 82.8456 398.11C80.1463 397.536 77.4156 397.114 74.7183 396.537C72.8373 396.135 71.0002 395.553 69.139 395.071L67.6751 394.703L67.6556 399.328C67.6313 405.88 67.6429 412.426 67.9772 418.977L68.0405 420.191C68.4306 427.481 69.0395 434.922 71.6272 441.796C73.73 447.382 77.0816 452.644 81.4647 456.712C83.6826 458.771 86.0671 460.373 89.0146 461.164C91.7513 461.899 94.6187 461.985 97.432 461.789C110.927 460.848 122.939 453.519 134.661 447.451C153.835 437.527 173.01 427.607 192.203 417.72C191.684 417.366 191.196 416.957 190.751 416.498C188.178 413.841 186.82 410.203 185.928 406.68C184.979 402.93 184.412 398.911 184.346 395.039M209.196 421.551C209.366 421.46 209.562 421.574 209.57 421.766C209.629 423.231 208.819 424.677 208.214 425.997L208.15 426.138C207.414 427.773 206.609 429.387 205.776 430.975C204.112 434.148 202.382 437.287 200.577 440.381C196.947 446.607 192.913 452.57 188.145 457.991C187.068 459.215 185.296 457.645 185.988 456.327C189.32 449.971 193.205 443.97 197.203 438.021C199.205 435.043 201.205 432.061 203.227 429.096C204.07 427.859 204.925 426.626 205.802 425.412L206.331 424.686M408.269 301.538C391.425 302.046 374.601 303.145 357.838 304.866C342.247 306.466 326.714 308.597 311.269 311.253C308.043 311.807 304.821 312.385 301.603 312.985L299.672 313.348C296.454 313.958 292.522 314.209 289.656 315.928C286.635 317.74 285.818 321.528 284.813 324.651C283.631 328.324 282.479 332.007 281.359 335.7C276.908 350.36 272.843 365.148 269.216 380.034C267.416 387.422 265.818 394.852 264.135 402.268C262.64 408.857 260.99 415.371 259.267 421.893C259.479 421.728 259.74 421.603 260.054 421.536C268.613 419.715 277.351 418.924 286.038 417.918L286.878 417.82C295.865 416.763 304.852 415.715 313.844 414.704L373.38 408.01C376.891 407.616 380.652 407.562 384.069 406.62C389.879 405.018 391.241 398.525 392.215 393.353L392.245 393.197C395.183 377.573 397.523 361.813 400.263 346.15M260.651 403.731C258.34 403.578 255.176 401.462 253.423 401.614C254.343 403.158 254.759 404.919 254.228 406.8C252.752 412.035 246.074 409.326 242.858 407.727C240.221 406.416 237.674 404.811 234.754 404.196C231.447 403.501 229.206 404.816 226.412 406.332C224.117 407.576 221.617 408.47 219.047 408.933C217.68 409.179 216.382 409.205 215.086 409.109C215.008 409.173 214.92 409.232 214.82 409.284L214.134 409.644C217.234 409.786 220.391 410.742 223.275 411.618C226.265 412.525 229.199 413.618 232.118 414.736L234.989 415.84C242.072 418.551 249.404 421.126 257.07 421.104C257.621 421.102 258.072 421.255 258.428 421.503M247.72 387.33C250.003 387.051 252.111 387.35 253.936 388.836C256.136 390.628 257.615 393.6 260.778 393.796C261.701 393.852 261.915 395.149 260.998 395.42C258.643 396.117 256.737 394.843 255.132 393.19L254.054 392.063C252.468 390.422 251.006 389.153 248.316 389.251C245.435 389.356 242.549 390.022 239.686 390.36C236.444 390.743 233.202 391.07 229.949 391.352C229.798 391.365 229.772 391.127 229.914 391.092L233.557 390.186M245.515 377.997L245.892 377.959C249.208 377.638 252.241 377.625 255.202 379.408L255.77 379.752C258.44 381.374 261.346 383.286 263.016 385.912C263.289 386.343 262.838 386.848 262.38 386.739C259.171 385.969 256.825 383.615 254.127 381.853C251.098 379.876 247.969 380.202 244.516 380.509C241.173 380.807 237.831 381.216 234.52 381.773C231.409 382.296 228.288 383.122 225.146 383.385L225.147 383.379C224.788 383.378 224.583 382.839 224.949 382.656C228.138 381.064 231.831 380.311 235.3 379.583M131.971 287.854C131.966 287.592 132.335 287.494 132.464 287.721C134.622 291.515 135.749 296.167 136.899 300.348C138.103 304.727 139.074 309.151 139.947 313.608C141.715 322.632 142.658 331.604 142.721 340.802C142.73 342.115 140.59 342.464 140.381 341.118C138.991 332.172 137.66 323.216 136.26 314.272C135.555 309.774 134.735 305.293 133.95 300.808M153.329 294.464C153.17 293.94 153.932 293.765 154.127 294.244C158.457 304.869 159.923 316.911 157.143 328.121C156.718 329.836 154.206 329.093 154.527 327.4M209.179 285.022C209.157 284.631 209.666 284.569 209.858 284.839C211.909 287.728 212.76 291.599 216.36 293.092C218.157 293.838 220.179 293.708 221.767 294.968C222.829 295.81 223.643 297.14 222.846 298.415C222.589 298.828 221.869 299.034 221.521 298.586C221.012 297.934 220.742 297.152 220.051 296.663C219.076 295.973 217.76 295.931 216.642 295.606C215.195 295.187 213.92 294.453 212.876 293.363M243.454 236.822C243.666 236.714 243.869 236.783 244.004 236.966C244.197 237.226 244.173 237.479 243.937 237.658C244.253 238.303 244.626 239.92 244.679 240.156C244.895 241.11 245.125 242.059 245.365 243.007C245.85 244.918 246.275 246.845 246.761 248.757C247.275 250.784 247.889 252.79 248.571 254.766C248.615 254.894 248.663 255.025 248.714 255.158L248.792 255.358L248.811 255.327C248.95 255.108 249.238 255.261 249.204 255.493C249.172 255.704 249.13 255.914 249.094 256.125L249.165 256.314C249.612 257.515 249.917 258.78 249.098 259.84C248.792 260.236 248.455 260.471 248.035 260.541C247.361 262.76 246.516 264.939 245.611 267.031L245.346 267.642C244.015 270.694 242.596 273.707 240.477 276.306C238.164 279.143 234.981 281.081 232.966 284.19C232.029 285.636 231.376 287.156 230.847 288.79L230.648 289.41C230.272 290.565 229.838 291.685 228.754 292.362C228.408 292.578 227.89 292.509 227.611 292.215C225.388 289.864 227.715 285.475 229.056 283.199C230.919 280.034 233.615 278.009 236.315 275.621C239.226 273.048 241.082 269.605 242.878 266.213C243.978 264.135 245.04 262.012 246.157 259.925C244.99 258.893 244.616 256.843 244.22 255.419L244.184 255.291C243.53 253.009 243.01 250.668 242.682 248.316C242.366 246.055 242.234 243.827 242.318 241.553L242.342 240.974M247.796 247.582C247.538 247.228 247.966 246.828 248.32 246.902C250.472 247.347 252.577 248.649 254.509 249.703L254.715 249.814C256.257 250.646 257.809 251.664 258.619 253.28C259.5 255.035 259.427 257.057 259.307 258.965L259.296 259.143C259.148 261.431 259.125 263.808 258.64 266.055C258.393 267.205 257.351 267.529 256.46 267.257C255.401 270.602 252.424 273.067 250.249 275.706C247.477 279.072 247.999 283.615 248.289 287.668C248.406 289.309 246.364 289.776 245.312 288.9L242.889 286.888C242.485 286.552 242.082 286.216 241.68 285.878C241.336 285.588 240.995 285.296 240.657 285.001L240.151 284.555C239.927 284.354 238.938 283.25 238.649 283.204C237.949 283.093 236.285 284.938 235.716 285.517L235.644 285.589C234.572 286.639 233.604 287.77 232.702 288.969C232.536 289.189 232.212 289.006 232.33 288.752C233.139 287.021 234.078 285.366 235.194 283.817L235.419 283.509C236.162 282.509 237.158 280.743 238.469 280.448C240.069 280.087 241.666 281.691 242.83 282.582L242.904 282.637C243.458 283.053 244.005 283.476 244.552 283.901C244.495 280.884 244.876 277.834 246.434 275.234C247.533 273.4 249.179 272.042 250.588 270.466C252.157 268.711 252.976 266.554 254.395 264.726C254.578 264.491 254.83 264.364 255.103 264.324C255.158 262.855 255.374 261.371 255.541 259.917L255.59 259.482C255.759 257.903 256.158 255.974 255.385 254.495C254.655 253.098 252.978 252.112 251.737 251.164L250.723 250.378M177.934 230.883C177.286 231.258 176.68 231.724 176.131 232.307C174.401 234.142 173.164 236.425 171.96 238.622C171.312 239.805 170.687 241.001 170.034 242.181C169.749 242.694 169.457 243.202 169.162 243.709C169.025 243.943 168.619 244.407 168.418 244.693C168.642 245.006 168.873 245.315 169.108 245.62C169.198 245.736 175.404 252.495 177.568 255.14C180.88 259.192 183.841 263.471 186.372 268.052C188.851 272.538 190.738 277.287 193.034 281.86C194.184 284.149 195.467 286.422 197.103 288.403C197.166 288.48 197.233 288.553 197.298 288.63C197.922 286.943 199.522 285.138 200.308 284.101L200.382 284.003C202.164 281.601 204.046 279.271 205.969 276.981C207.726 274.89 209.527 272.844 211.371 270.832L212.065 270.079C213.35 268.691 214.983 266.615 216.865 265.623C216.663 265.264 216.43 264.908 216.161 264.557C214.399 262.255 211.907 260.583 209.448 259.075L207.853 258.105C201.842 254.443 195.925 250.612 190.707 245.854C187.946 243.336 185.224 240.699 182.903 237.762L182.082 236.724M187.963 229.071C185.148 229.307 182.109 229.251 179.508 230.167C181.82 232.353 184.018 234.713 186.276 236.935C186.477 235.432 186.888 233.947 187.236 232.482" fill="black"/>
<path fill-rule="evenodd" clip-rule="evenodd" d="M216.571 90.0818C236.572 90.0818 257.259 105.614 264.591 115.525C270.755 123.858 274.074 161.539 274.074 187.005C274.074 192.331 277.007 202.371 276.151 207.465C273.014 226.133 259.346 241.79 232.294 241.79C205.242 241.79 185.846 231.047 165.738 202.204C155.982 202.204 151.254 194.708 151.185 182.879C151.117 171.05 160.603 166.747 160.603 166.747C160.603 166.747 157.22 120.065 165.738 107.911C174.256 95.7575 196.57 90.0818 216.571 90.0818Z" fill="white"/>
<path fill-rule="evenodd" clip-rule="evenodd" d="M208.155 83.4814C220.783 82.2003 233.158 83.2767 245.603 85.5039C246.554 85.6764 247.093 86.3014 247.293 87.0528C253.155 87.321 259.024 87.7519 264.878 88.073C267.002 88.1895 268.206 90.2924 267.238 92.1914C267.044 92.5686 266.843 92.9356 266.639 93.3027L266.895 93.2179C268.657 92.6519 270.559 92.3728 272.275 93.2713C274.459 94.4147 275.315 96.9376 274.832 99.2597C274.709 99.8525 274.501 100.421 274.265 100.975C274.744 100.943 275.227 100.954 275.706 101.017C278.256 101.356 280.151 103.315 280.285 105.923C280.482 109.861 277.95 113.856 274.966 116.675C275.399 117.569 275.565 118.62 275.385 119.686C275.026 121.793 273.477 123.054 271.681 123.877C272.43 126.26 272.784 128.751 272.575 131.296C272.505 132.146 271.763 132.848 270.98 133.02C273.899 141.071 275.376 149.715 276.439 158.138C277.196 164.131 277.569 170.158 277.615 176.196C277.637 178.922 277.592 181.651 277.478 184.377L277.432 185.4C277.291 188.347 277.284 191.441 276.756 194.357C278.559 197.43 279.285 201.245 279.591 204.689C279.972 208.952 279.369 213.35 278.027 217.405C272.962 232.727 257.674 242.397 242.32 244.91C228.107 247.236 211.66 244.105 203.354 231.171C203.224 230.967 203.502 230.797 203.664 230.932C209.607 235.773 216.5 237.933 223.989 238.984C236.938 240.799 251.492 237.721 261.883 229.562C266.871 225.645 270.468 219.942 272.05 213.805C272.856 210.668 273.135 207.396 272.817 204.167C272.493 200.892 271.046 198.097 270.133 195.003C269.827 193.958 270.151 192.987 270.789 192.296C270.968 189.783 271.391 187.249 271.553 184.744C271.732 181.895 271.842 179.047 271.881 176.196C271.955 170.281 271.708 164.356 271.211 158.467C270.303 147.681 267.89 137.158 266.474 126.465C265.949 126.936 265.198 127.129 264.41 126.718L264.328 126.673L263.899 126.426C263.874 126.426 263.846 126.43 263.821 126.433C260.88 126.719 257.829 126.31 255.011 125.431C252.063 124.514 249.326 123.102 246.881 121.221C246.417 123.582 246.222 125.967 246.219 128.374C246.216 129.878 244.627 130.658 243.366 130.015C237.776 127.171 232.436 123.893 227.367 120.208C226.775 123.247 226.183 126.285 225.588 129.327C225.359 130.499 223.869 130.972 222.914 130.414C219.117 128.201 215.838 125.304 213.168 121.86C212.635 122.881 212.1 123.902 211.562 124.921L210.751 126.447C209.952 127.947 208.881 129.606 207.13 130.086C205.278 130.594 203.731 129.391 203.108 127.711C202.917 127.189 202.741 126.652 202.579 126.112C201.001 129.723 199.219 133.252 197.204 136.618C194.182 141.668 190.553 146.168 186.936 150.783C185.837 152.185 183.956 150.847 183.804 149.485C183.716 148.684 183.642 147.879 183.579 147.078C181.471 151.34 179.271 155.561 176.875 159.661L177.218 161.008V161.008C178.207 164.988 179.028 168.996 179.921 172.997C180.209 174.288 179.524 176.134 178.018 176.354C176.22 176.616 174.518 177.537 172.676 176.904C170.667 176.213 170.27 174.473 169.322 172.824C169.133 172.496 168.912 172.194 168.676 171.908L168.616 171.986V171.986C168.468 172.18 168.115 171.969 168.203 171.746L168.307 171.489V171.489C167.492 170.623 166.517 169.9 165.62 169.123C163.49 168.763 161.094 169.157 159.626 170.024C156.283 172 154.747 176.072 154.716 179.817C154.677 184.2 156.033 189.127 158.322 192.875C159.33 194.523 160.711 196.011 162.535 196.742C164.346 197.469 166.308 197.243 168.151 197.928C169.369 198.383 170.12 199.738 169.383 200.966C169.334 201.051 169.278 201.129 169.225 201.21L169.772 201.939C170.149 202.443 170.542 202.984 170.909 203.546C171.846 204.626 172.832 205.667 173.787 206.73C175.551 208.688 177.263 210.7 178.999 212.686C180.638 214.56 182.371 216.321 184.157 218.054C185.844 219.695 187.95 221.075 189.5 222.825C191.008 224.533 191.417 227.515 188.936 228.504C186.193 229.6 183.764 227.031 181.917 225.318L181.839 225.246C178.453 222.125 175.396 218.557 172.968 214.63C170.562 216.27 167.084 216.427 164.689 214.787C163.428 213.924 162.461 212.474 161.991 210.897C161.548 210.996 161.106 211.054 160.674 211.048C160.451 211.177 160.228 211.302 160.003 211.42C158.217 212.351 156.023 211.935 155.205 209.955C154.461 208.157 155.228 206.116 155.898 204.384L156.037 204.026C156.417 203.038 156.836 201.962 157.358 200.949C155.906 199.855 154.666 198.496 153.617 196.951C150.091 191.745 148.33 184.133 149.108 177.922C149.576 174.174 151.334 170.292 154.212 167.765L154.106 167.49V167.49C153.3 165.44 152.567 163.382 152.092 161.216C151.535 158.682 151.263 156.056 151.017 153.476C150.496 148.028 150.637 142.455 151.331 137.028C152.634 126.811 155.938 116.782 161.803 108.28C160.14 106.286 158.823 103.939 159.51 101.24C159.823 100.001 160.538 98.8259 161.616 98.1163C162.211 97.7249 162.92 97.6649 163.515 97.3402L163.694 97.2415C163.955 97.0886 163.755 97.1048 163.599 96.3944C162.983 93.5568 163.494 90.815 166.611 89.8728C169.545 88.987 172.321 90.868 174.058 93.1089C178.602 89.8795 184.59 88.1895 189.856 86.7531C195.844 85.1259 201.987 84.1099 208.155 83.4814ZM159.073 178.659C159.051 176.348 161.239 174.922 163.391 175.3C164.837 175.552 166.042 176.416 167.175 177.31L167.727 177.747C169.105 178.832 170.688 180.001 171.51 181.536C172.715 183.801 170.168 186.85 167.791 185.262C166.16 184.167 165.114 182.412 164.044 180.783L163.934 180.614C163.448 179.884 163.021 179.107 162.355 178.522L162.211 178.395C161.992 178.208 161.757 178.038 161.475 177.957C160.929 177.8 159.919 178.02 159.678 178.67L159.657 178.737C159.569 179.065 159.076 178.995 159.073 178.659Z" fill="black"/>
<path fill-rule="evenodd" clip-rule="evenodd" d="M250.58 210.654C248.184 211.595 245.354 211.818 242.881 211.015C240.516 210.248 238.369 208.54 237.07 206.393C235.913 204.48 235.43 202.21 236.114 199.947C236.146 199.839 236.252 199.77 236.355 199.743C236.914 200.252 237.26 200.758 237.605 201.261C238.188 202.11 238.771 202.949 239.572 203.675C240.738 204.73 242.308 205.587 243.866 205.87C245.392 206.147 246.954 205.902 248.32 205.172C249.151 204.728 249.823 204.135 250.488 203.539C251.212 202.89 251.925 202.231 252.923 201.865C253.722 201.571 254.562 201.819 255.207 202.31C255.901 202.838 256.399 203.665 256.372 204.529C256.329 205.868 255.743 206.985 254.892 207.906C253.742 209.152 252.116 210.05 250.58 210.654ZM247.736 177.287C250.402 178.906 254.463 182.684 251.596 186.699C248.22 190.24 243.36 186.18 240.966 184.344C238.745 182.921 236.25 186.581 238.31 188.243C255.615 201.051 262.638 177.71 249.084 175.382C247.592 175.126 247.038 176.785 247.736 177.287ZM219.699 154.842C223.332 154.669 226.534 156.3 229.996 157.041C233.195 157.726 236.348 157.315 239.459 156.443C244.509 155.028 246.597 162.757 241.616 164.263C237.988 165.36 234.169 165.436 230.447 164.871C227.14 164.368 224.368 162.759 221.216 161.822C218.51 161.018 215.328 161.352 212.47 161.731L211.361 161.88C209.713 162.102 208.055 162.325 206.423 162.647C205.007 162.927 203.593 163.439 202.148 163.498C201.984 163.505 201.845 163.292 201.948 163.15C203.627 160.845 206.863 159.027 209.438 157.814L209.612 157.732C212.79 156.251 216.161 155.011 219.699 154.842ZM218.367 171.837L218.367 171.757C218.372 169.507 219.683 164.369 222.923 164.369C224.948 164.369 226.177 167.865 226.39 171.47L226.397 171.617C226.491 173.858 225.876 178.757 222.923 178.757C219.94 178.757 218.398 174.117 218.367 171.837V171.837ZM266.076 171.837L266.077 171.757C266.072 169.507 264.761 164.369 261.52 164.369C259.547 164.369 258.329 167.693 258.072 171.2L258.054 171.47C257.926 173.636 258.502 178.757 261.52 178.757C264.504 178.757 266.046 174.117 266.076 171.837V171.837ZM266.027 152.101L266.259 152.107C270.046 152.238 273.941 154.481 274.952 158.248C275.004 158.443 274.763 158.575 274.62 158.441C271.506 155.526 267.319 158.311 264.201 159.771L263.055 160.3C259.036 162.169 254.464 164.368 250.001 162.974C247.881 162.313 246.535 160.135 247.139 157.936C247.677 155.979 250.04 154.334 252.086 155.041L252.179 155.074C253.842 155.71 255.886 155.066 257.603 154.431L259.014 153.901C261.282 153.041 263.56 152.078 266.027 152.101V152.101Z" fill="black"/>
</svg>
