<svg width="24" height="24" viewBox="0 0 24 24" fill="none" xmlns="http://www.w3.org/2000/svg">
<path d="M12 0C5.3736 0 0 5.3736 0 12C0 18.6264 5.3736 24 12 24C18.6264 24 24 18.6264 24 12C24 5.3736 18.6264 0 12 0ZM12.2543 18.9868C12.2542 18.9868 12.2545 18.9868 12.2543 18.9868H12.2514C11.0493 18.9862 9.8681 18.6848 8.81909 18.1128L5.01178 19.1113L6.03076 15.3906C5.40216 14.3018 5.07147 13.0666 5.07202 11.8011C5.07367 7.84241 8.29559 4.62177 12.2543 4.62177C14.1755 4.6225 15.9789 5.3703 17.3348 6.72729C18.6909 8.08447 19.4372 9.88843 19.4365 11.8068C19.4348 15.7657 16.2125 18.9868 12.2543 18.9868V18.9868Z" fill="#019934"/>
<path d="M12.026 6.04688C8.72938 6.04688 6.04834 8.70571 6.04688 11.974C6.04651 13.094 6.36255 14.1847 6.96072 15.1285L7.10279 15.3527L6.49894 17.5401L8.76091 16.9516L8.97924 17.08C9.89676 17.6202 10.9486 17.9059 12.0211 17.9062H12.0234C15.3175 17.9062 17.9985 15.2472 18 11.9787C18.0005 10.3948 17.3795 8.90559 16.2511 7.78524C15.1228 6.66489 13.6222 6.04742 12.026 6.04688V6.04688ZM15.5413 14.5225C15.3916 14.9386 14.6739 15.3185 14.3287 15.3698C14.019 15.4156 13.6275 15.4347 13.197 15.2992C12.936 15.217 12.6014 15.1074 12.1727 14.9239C10.3705 14.152 9.19336 12.3521 9.10353 12.2332C9.01371 12.1142 8.36989 11.2669 8.36989 10.3897C8.36989 9.51269 8.83406 9.08147 8.99868 8.90323C9.16348 8.72481 9.35816 8.68025 9.47787 8.68025C9.59758 8.68025 9.71747 8.68134 9.82214 8.68643C9.9325 8.69189 10.0806 8.64478 10.2264 8.99235C10.3761 9.34919 10.7354 10.2262 10.7804 10.3153C10.8253 10.4046 10.8551 10.5086 10.7954 10.6276C10.7354 10.7465 10.5364 11.0032 10.3463 11.2371C10.2665 11.3351 10.1626 11.4224 10.2674 11.6008C10.3721 11.779 10.7329 12.3627 11.2669 12.8352C11.9532 13.4423 12.5321 13.6304 12.7118 13.7197C12.8913 13.8088 12.9961 13.7939 13.101 13.6751C13.2057 13.5562 13.5501 13.1548 13.6698 12.9763C13.7895 12.7979 13.9094 12.8277 14.074 12.8872C14.2388 12.9465 15.1221 13.3777 15.3017 13.4669C15.4814 13.5562 15.6011 13.6007 15.646 13.6751C15.6911 13.7495 15.6911 14.1061 15.5413 14.5225V14.5225Z" fill="#019934"/>
</svg>
