<svg width="36" height="36" viewBox="0 0 36 36" fill="none" xmlns="http://www.w3.org/2000/svg">
<g clip-path="url(#clip0)">
<path d="M34 11.7073C34 18.4964 29.5588 24 22.6 24C15.6412 24 10 19.0817 10 12.2927C10 5.50362 15.6412 0 22.6 0C29.5588 0 34 4.91826 34 11.7073Z" fill="#019934"/>
<path d="M33.8351 11.4122C34.552 7.87146 32.0395 4.54211 28.5346 4.16547C26.7029 -0.158815 20.7904 -0.88479 18.0011 3.00831C15.2131 -0.883301 9.3003 -0.160872 7.46766 4.16547C3.96071 4.5424 1.45076 7.87387 2.16723 11.4122C-0.445074 13.6013 -0.715107 17.5026 1.48119 20.0324C-2.15755 24.9326 1.30095 32.0748 7.57832 32.0748C9.58282 36.2565 15.3057 36.7524 18.0011 32.9903C20.6986 36.7555 26.4213 36.2524 28.4238 32.0748C34.6855 32.0887 38.1607 24.934 34.521 20.0324C36.7202 17.4994 36.4441 13.5986 33.8351 11.4122ZM12.9171 33.2302C9.74574 33.2302 7.9158 29.504 9.9823 27.0034C10.3816 26.5202 10.3136 25.8049 9.83044 25.4056C9.34726 25.0064 8.63199 25.0744 8.23272 25.5575C7.27856 26.7121 6.7707 28.2072 6.85092 29.7389C2.5477 29.2815 0.631015 24.1364 3.47569 20.9645C3.50683 20.9997 4.57377 19.4745 6.85021 19.2321C6.81276 19.9672 6.9088 20.7104 7.14436 21.431C7.30084 21.9096 7.74522 22.2135 8.22286 22.2135C8.99182 22.2135 9.5421 21.4607 9.30179 20.7257C8.64994 18.7314 9.74191 16.5786 11.7361 15.9268C12.3319 15.732 12.657 15.0912 12.4622 14.4954C12.2674 13.8996 11.6268 13.5743 11.0308 13.7693C10.771 13.8542 10.5203 13.9567 10.2781 14.073C9.8259 12.9151 10.1378 11.5474 11.1461 10.7119C11.6287 10.312 11.6957 9.59656 11.2958 9.11395C10.8959 8.63134 10.1804 8.56438 9.69779 8.96421C7.73224 10.593 7.27743 13.3309 8.42012 15.4594C7.65464 16.3051 7.47689 16.9321 7.41291 16.9321C5.74717 16.9321 4.20585 17.4743 2.95562 18.3913C1.56283 16.6475 1.95955 14.0196 3.92518 12.7938C4.378 12.5114 4.57291 11.9517 4.39339 11.4491C3.55967 9.11438 5.1322 6.36837 8.14243 6.36837C8.65547 6.36837 9.10701 6.023 9.23916 5.52408C9.68013 3.85905 11.1925 2.69621 12.9171 2.69621C15.0151 2.69621 16.7221 4.40309 16.7221 6.50122V29.4252C16.7221 31.5234 15.0152 33.2302 12.9171 33.2302ZM32.7581 18.3913C31.4046 17.3987 29.7631 16.9055 28.2789 16.9332C28.0217 16.3941 27.7042 15.913 27.2937 15.4594C28.4355 13.3326 27.9833 10.5944 26.016 8.96421C25.5332 8.56431 24.8179 8.63134 24.418 9.11395C24.0181 9.59663 24.0852 10.312 24.5678 10.7119C25.576 11.5473 25.888 12.9151 25.4357 14.073C25.1934 13.9567 24.9428 13.8542 24.683 13.7693C24.0872 13.5744 23.4464 13.8996 23.2516 14.4954C23.0569 15.0911 23.3819 15.732 23.9777 15.9268C25.9719 16.5786 27.064 18.7314 26.412 20.7257C26.2173 21.3214 26.5423 21.9623 27.1381 22.157C27.7306 22.3507 28.3737 22.0298 28.5695 21.431C28.805 20.7103 28.9011 19.9671 28.8636 19.232C31.5303 19.5161 33.5845 21.7837 33.5845 24.4853C33.5845 27.2089 31.5129 29.4572 28.8629 29.7387C28.9431 28.213 28.439 26.7163 27.4812 25.5574C27.082 25.0741 26.3666 25.0062 25.8835 25.4054C25.4003 25.8048 25.3323 26.5201 25.7316 27.0032C27.7943 29.4993 25.9697 33.2301 22.7968 33.2301C20.6987 33.2301 18.9918 31.5232 18.9918 29.4251V6.50122C18.9918 4.40316 20.6986 2.69621 22.7968 2.69621C24.5213 2.69621 26.0337 3.85912 26.4747 5.52408C26.6101 6.0352 27.0786 6.38631 27.609 6.3678C30.2673 6.27006 32.2266 8.91166 31.3204 11.4491C31.1409 11.9517 31.3358 12.5115 31.7886 12.7938C33.7563 14.0209 34.1494 16.6496 32.7581 18.3913Z" fill="black"/>
</g>
<defs>
<clipPath id="clip0">
<rect width="36" height="36" fill="white"/>
</clipPath>
</defs>
</svg>
