<svg width="25" height="25" viewBox="0 0 25 24" fill="none" xmlns="http://www.w3.org/2000/svg">
<path fill-rule="evenodd" clip-rule="evenodd" d="M9.62883 14.9087L11.5982 13.1733H9.41708V10.7873H10.444L8.524 9.07776L6.67969 10.7593H7.62104V13.6279C7.62763 14.5133 7.77794 14.9151 8.5624 14.9237L9.62883 14.9087Z" fill="#328129"/>
<path fill-rule="evenodd" clip-rule="evenodd" d="M15.5699 9.09069L13.6016 10.8261H15.7827V13.2121H14.7547L16.6758 14.9237L18.519 13.2401H17.5787V10.3736C17.5711 9.4871 17.4218 9.0853 16.6374 9.07776L15.5699 9.09069Z" fill="#328129"/>
<path fill-rule="evenodd" clip-rule="evenodd" d="M15.5631 14.9172L13.7956 12.9847V15.1241H11.3654V14.1147L9.62207 16.002L11.3358 17.8117V16.8875H14.2564C15.1594 16.8821 15.5675 16.7334 15.5774 15.9632L15.5631 14.9172Z" fill="#328129"/>
<path fill-rule="evenodd" clip-rule="evenodd" d="M9.63633 9.08315L11.4038 11.0157V8.87525H13.834V9.88459L15.5774 7.99733L13.8637 6.18762V7.11294H10.943C10.0401 7.11833 9.63194 7.2659 9.62207 8.03611L9.63633 9.08315Z" fill="#328129"/>
<path fill-rule="evenodd" clip-rule="evenodd" d="M1.78386 6.67664C1.53591 7.06658 1.32635 7.06874 1.13874 8.72656C0.951125 10.3833 2.02304 12.1305 2.02304 12.1305C2.02304 12.1305 1.91223 11.3302 2.42569 10.6688C2.94026 10.0084 3.9628 9.02817 4.44335 8.36785C4.9239 7.70752 5.04898 6.86299 5.04898 6.86299C4.60683 7.06012 4.1153 7.17 3.59745 7.17C2.93477 7.17 2.31488 6.98902 1.78386 6.67664Z" fill="#00408E"/>
<path fill-rule="evenodd" clip-rule="evenodd" d="M6.07848 3.76062C6.07848 5.11144 4.96487 6.20588 3.59014 6.20588C2.21431 6.20588 1.09961 5.11144 1.09961 3.76062C1.09961 2.40981 2.21431 1.31537 3.59014 1.31537C4.96487 1.31537 6.07848 2.40981 6.07848 3.76062Z" fill="#00408E"/>
<path fill-rule="evenodd" clip-rule="evenodd" d="M6.42285 1.70322C6.42285 1.70322 8.33519 0.347015 10.2563 0.0830999C12.1763 -0.181893 14.9335 0.271611 14.9335 0.271611C14.9335 0.271611 13.6037 0.362096 12.7787 0.839298C11.9525 1.31542 11.2931 2.04577 10.3134 2.91184C9.3325 3.78115 8.64129 4.3456 7.95009 4.66661C7.50355 4.87343 7.12064 4.92298 6.9067 4.93268C7.04055 4.56643 7.11406 4.17217 7.11406 3.76068C7.11406 2.99048 6.85732 2.27844 6.42285 1.70322Z" fill="#00408E"/>
<path fill-rule="evenodd" clip-rule="evenodd" d="M7.28955 22.7335C7.68672 22.9802 7.68891 23.1838 9.37743 23.368C11.0637 23.5532 12.8433 22.5008 12.8433 22.5008C12.8433 22.5008 12.0281 22.6096 11.3556 22.1044C10.683 21.6014 9.68353 20.5963 9.01208 20.1245C8.33952 19.6527 7.47936 19.5288 7.47936 19.5288C7.67904 19.964 7.79095 20.4466 7.79095 20.954C7.79095 21.6046 7.60772 22.2143 7.28955 22.7335Z" fill="#328129"/>
<path fill-rule="evenodd" clip-rule="evenodd" d="M4.31964 18.5173C5.69547 18.5173 6.81017 19.6139 6.81017 20.9625C6.81017 22.3144 5.69547 23.4078 4.31964 23.4078C2.94271 23.4078 1.8291 22.3144 1.8291 20.9625C1.8291 19.6139 2.94271 18.5173 4.31964 18.5173Z" fill="#328129"/>
<path fill-rule="evenodd" clip-rule="evenodd" d="M2.22401 18.1802C2.22401 18.1802 0.842698 16.3047 0.573896 14.4175C0.303997 12.5313 0.765898 9.82428 0.765898 9.82428C0.765898 9.82428 0.858059 11.1299 1.343 11.941C1.82904 12.7521 2.57181 13.3995 3.45501 14.3625C4.33932 15.3234 4.91532 16.0021 5.24118 16.6807C5.45293 17.1202 5.5034 17.4951 5.51217 17.7073C5.14024 17.5748 4.73868 17.5026 4.31957 17.5026C3.53401 17.5026 2.80989 17.7547 2.22401 18.1802Z" fill="#328129"/>
<path fill-rule="evenodd" clip-rule="evenodd" d="M23.4144 17.3227C23.6635 16.9338 23.873 16.9306 24.0606 15.2738C24.2483 13.616 23.1763 11.8699 23.1763 11.8699C23.1763 11.8699 23.2871 12.6702 22.7737 13.3306C22.2591 13.9909 21.2366 14.9722 20.756 15.6315C20.2744 16.2929 20.1504 17.1363 20.1504 17.1363C20.5925 16.9403 21.0841 16.8304 21.6019 16.8304C22.2635 16.8304 22.8845 17.0103 23.4144 17.3227Z" fill="#00408E"/>
<path fill-rule="evenodd" clip-rule="evenodd" d="M19.1201 20.2387C19.1201 18.89 20.2348 17.7934 21.6085 17.7934C22.9854 17.7934 24.1001 18.89 24.1001 20.2387C24.1001 21.5905 22.9854 22.6839 21.6085 22.6839C20.2348 22.6839 19.1201 21.5905 19.1201 20.2387Z" fill="#00408E"/>
<path fill-rule="evenodd" clip-rule="evenodd" d="M18.7767 22.2972C18.7767 22.2972 16.8644 23.6534 14.9433 23.9173C13.0222 24.1812 10.2661 23.7288 10.2661 23.7288C10.2661 23.7288 11.5959 23.6373 12.4209 23.1611C13.2471 22.685 13.9065 21.9557 14.8862 21.0875C15.866 20.2204 16.5572 19.6537 17.2495 19.3338C17.696 19.127 18.0778 19.0764 18.2929 19.0677C18.159 19.4329 18.0855 19.8283 18.0855 20.2387C18.0855 21.01 18.3422 21.722 18.7767 22.2961V22.2972Z" fill="#00408E"/>
<path fill-rule="evenodd" clip-rule="evenodd" d="M17.9099 1.26585C17.5127 1.0224 17.5105 0.816658 15.8231 0.632456C14.1346 0.448254 12.355 1.49853 12.355 1.49853C12.355 1.49853 13.1702 1.39081 13.8438 1.89602C14.5164 2.39907 15.5148 3.4041 16.1873 3.87484C16.8599 4.34666 17.72 4.47054 17.72 4.47054C17.5204 4.03642 17.4074 3.55384 17.4074 3.0454C17.4074 2.39476 17.5917 1.78614 17.9099 1.26585Z" fill="#328129"/>
<path fill-rule="evenodd" clip-rule="evenodd" d="M20.8802 5.482C19.5055 5.482 18.3896 4.38756 18.3896 3.03675C18.3896 1.68701 19.5055 0.591492 20.8802 0.591492C22.256 0.591492 23.3707 1.68701 23.3707 3.03675C23.3707 4.38756 22.256 5.482 20.8802 5.482Z" fill="#328129"/>
<path fill-rule="evenodd" clip-rule="evenodd" d="M22.9768 5.81921C22.9768 5.81921 24.357 7.6957 24.6269 9.58297C24.8957 11.4681 24.4338 14.1751 24.4338 14.1751C24.4338 14.1751 24.3416 12.8695 23.8556 12.0584C23.3706 11.2472 22.629 10.6009 21.7447 9.64006C20.8615 8.67704 20.2844 7.99732 19.9585 7.31976C19.7467 6.88026 19.6963 6.50432 19.6875 6.29318C20.0594 6.42568 20.461 6.49678 20.8801 6.49678C21.6657 6.49678 22.3898 6.24471 22.9757 5.81921H22.9768Z" fill="#328129"/>
</svg>
