<svg width="36" height="36" viewBox="0 0 36 36" fill="none" xmlns="http://www.w3.org/2000/svg">
<g clip-path="url(#clip0)">
<path d="M35 22.7073C35 29.4964 30.5588 35 23.6 35C16.6412 35 11 30.0817 11 23.2927C11 16.5036 16.6412 11 23.6 11C30.5588 11 35 15.9183 35 22.7073Z" fill="#019934"/>
<path d="M35.4161 16.3051C33.3956 13.7146 30.7785 11.5718 27.8478 10.1086C24.8562 8.61495 21.6378 7.83996 18.2781 7.79932C18.1855 7.79679 17.814 7.79679 17.7215 7.79932C14.3618 7.84003 11.1433 8.61495 8.15167 10.1086C5.22098 11.5718 2.60402 13.7145 0.583524 16.3051C-0.194834 17.303 -0.194834 18.697 0.583524 19.6949C2.60395 22.2854 5.22098 24.4282 8.15167 25.8914C11.1433 27.385 14.3617 28.16 17.7215 28.2007C17.814 28.2032 18.1855 28.2032 18.2781 28.2007C21.6377 28.16 24.8562 27.385 27.8478 25.8914C30.7785 24.4282 33.3956 22.2855 35.4161 19.6949C36.1944 18.6968 36.1944 17.303 35.4161 16.3051ZM8.80592 24.5811C6.06937 23.2148 3.62545 21.2137 1.73833 18.7942C1.37362 18.3266 1.37362 17.6734 1.73833 17.2058C3.62538 14.7863 6.06929 12.7852 8.80592 11.4189C9.58316 11.0309 10.3768 10.6953 11.1852 10.4113C9.10552 12.2808 7.79525 14.99 7.79525 18C7.79525 21.01 9.10559 23.7195 11.1855 25.5889C10.3771 25.3049 9.58323 24.9692 8.80592 24.5811ZM17.9998 26.74C13.1805 26.74 9.25972 22.8192 9.25972 17.9999C9.25972 13.1805 13.1805 9.25985 17.9998 9.25985C22.8192 9.25985 26.7399 13.1806 26.7399 18C26.7399 22.8193 22.8192 26.74 17.9998 26.74ZM34.2613 18.7941C32.3743 21.2137 29.9304 23.2147 27.1937 24.5811C26.4174 24.9686 25.6242 25.3027 24.8168 25.5865C26.8951 23.7171 28.2044 21.0086 28.2044 17.9999C28.2044 14.9895 26.8938 12.2799 24.8137 10.4104C25.6223 10.6946 26.4164 11.0305 27.1938 11.4187C29.9304 12.785 32.3743 14.7861 34.2614 17.2056C34.626 17.6734 34.626 18.3265 34.2613 18.7941Z" fill="black"/>
<path d="M18 14.2596C15.9376 14.2596 14.2598 15.9375 14.2598 17.9999C14.2598 20.0623 15.9376 21.7402 18 21.7402C20.0624 21.7402 21.7403 20.0623 21.7403 17.9999C21.7404 15.9375 20.0625 14.2596 18 14.2596ZM18 20.2758C16.7452 20.2758 15.7242 19.2549 15.7242 17.9999C15.7242 16.745 16.745 15.7241 18 15.7241C19.2549 15.7241 20.2758 16.745 20.2758 17.9999C20.2759 19.2549 19.2549 20.2758 18 20.2758Z" fill="black"/>
</g>
<defs>
<clipPath id="clip0">
<rect width="36" height="36" fill="white"/>
</clipPath>
</defs>
</svg>
