<svg width="36" height="36" viewBox="0 0 36 36" fill="none" xmlns="http://www.w3.org/2000/svg">
<g clip-path="url(#clip0)">
<path d="M36 22.7073C36 29.4964 31.5588 35 24.6 35C17.6412 35 12 30.0817 12 23.2927C12 16.5036 17.6412 11 24.6 11C31.5588 11 36 15.9183 36 22.7073Z" fill="#019934"/>
<path d="M32.0458 24.232L24.5123 20.6977C25.2603 19.7848 25.8118 18.7238 26.1239 17.5852C27.559 17.2631 28.6348 15.9792 28.6348 14.4485C28.6348 13.0261 27.7059 11.816 26.4227 11.3941V8.42273C26.4227 3.77859 22.6441 0 18 0C13.3559 0 9.57727 3.77859 9.57727 8.42273V11.3941C8.29406 11.816 7.36523 13.0261 7.36523 14.4485C7.36523 15.9792 8.44102 17.2631 9.87609 17.5852C10.1881 18.7238 10.7397 19.7849 11.4877 20.6977L3.95423 24.232C1.55215 25.359 0 27.8016 0 30.4549V36H36V30.4549C36 27.8016 34.4478 25.359 32.0458 24.232ZM11.6866 8.42273C11.6866 4.94156 14.5188 2.10938 18 2.10938C21.4812 2.10938 24.3134 4.94156 24.3134 8.42273V10.3317C21.7659 9.37406 20.7197 7.63875 20.6733 7.5593L19.9083 6.17344L18.9253 7.43203C18.9035 7.46016 16.8307 10.0463 11.6866 11.1867V8.42273ZM9.47461 14.4485C9.47461 13.8389 9.97031 13.3432 10.5799 13.3432H11.6866C15.8738 12.5044 18.4113 10.7634 19.6537 9.675C20.4813 10.5884 21.9769 11.8589 24.3134 12.555V13.3432H25.4201C26.0297 13.3432 26.5254 13.8389 26.5254 14.4485C26.5254 15.0581 26.0297 15.5538 25.4201 15.5538H24.3717L24.222 16.4306C23.7037 19.4681 21.0867 21.6724 18 21.6724C14.9133 21.6724 12.2962 19.4681 11.778 16.4306L11.6283 15.5538H10.5799C9.97031 15.5538 9.47461 15.0581 9.47461 14.4485ZM20.6507 23.3532L18 27.4229L15.3494 23.3532C16.1981 23.6345 17.0927 23.7818 18 23.7818C18.9073 23.7818 19.8019 23.6346 20.6507 23.3532ZM9.44529 33.8906C8.66988 33.8906 8.03904 33.2598 8.03904 32.4844C8.03904 31.709 8.66988 31.0781 9.44529 31.0781C10.2207 31.0781 10.8515 31.709 10.8515 32.4844C10.8515 33.2598 10.2207 33.8906 9.44529 33.8906ZM2.10938 30.4549C2.10938 28.6158 3.18516 26.9228 4.85016 26.1417L8.39067 24.4807V29.1306C6.96586 29.5796 5.92973 30.9132 5.92973 32.4844C5.92973 32.9842 6.03527 33.4597 6.22413 33.8906H2.10938V30.4549ZM12.6665 33.8906C12.8554 33.4597 12.9609 32.9842 12.9609 32.4844C12.9609 30.9132 11.9248 29.5796 10.5 29.1306V23.4911L12.355 22.6209L18 31.2879L23.645 22.6208L25.3593 23.425V27.6675C23.6651 28.0705 22.4009 29.5955 22.4009 31.4113V33.8906H12.6665ZM24.5103 33.8906V31.4113C24.5103 30.4521 25.2906 29.6719 26.2497 29.6719H26.5783C27.5375 29.6719 28.3178 30.4522 28.3178 31.4113V33.8906H24.5103ZM33.8906 33.8906H30.4272V31.4113C30.4272 29.5956 29.163 28.0705 27.4687 27.6675V24.4146L31.1498 26.1416C32.8148 26.9228 33.8906 28.6158 33.8906 30.4549V33.8906Z" fill="black"/>
</g>
<defs>
<clipPath id="clip0">
<rect width="36" height="36" fill="white"/>
</clipPath>
</defs>
</svg>
