<svg width="90" height="90" viewBox="0 0 90 90" fill="none" xmlns="http://www.w3.org/2000/svg">
<g clip-path="url(#clip0)">
<path d="M45.0001 22.8948C64.1845 22.8948 80.1301 34.7278 87.5884 42.3077C89.0602 43.8034 89.0602 46.1962 87.5884 47.6919C80.1301 55.2717 64.1845 67.105 45.0001 67.105C25.8157 67.105 9.87019 55.2717 2.41197 47.6919C0.940151 46.1962 0.940151 43.8034 2.41197 42.3077C9.87019 34.7278 25.8157 22.8948 45.0001 22.8948Z" fill="white"/>
<path d="M45 67.1045C57.208 67.1045 67.1045 57.208 67.1045 45C67.1045 32.792 57.208 22.8955 45 22.8955C32.792 22.8955 22.8955 32.792 22.8955 45C22.8955 57.208 32.792 67.1045 45 67.1045Z" fill="#019934"/>
<path opacity="0.1" d="M33.5632 26.08C27.1686 29.9536 22.895 36.9775 22.895 44.9998C22.895 57.2082 32.7917 67.1048 45 67.1048C50.2731 67.1048 55.114 65.2576 58.9133 62.1759C25.3129 70.3331 22.8952 38.0937 33.5632 26.08Z" fill="black"/>
<path d="M45.0004 55.829C50.9811 55.829 55.8294 50.9807 55.8294 45C55.8294 39.0193 50.9811 34.171 45.0004 34.171C39.0197 34.171 34.1714 39.0193 34.1714 45C34.1714 50.9807 39.0197 55.829 45.0004 55.829Z" fill="#00170C"/>
<path d="M55.6167 44.3212C58.4414 44.3212 60.7314 42.0313 60.7314 39.2065C60.7314 36.3817 58.4414 34.0918 55.6167 34.0918C52.7919 34.0918 50.502 36.3817 50.502 39.2065C50.502 42.0313 52.7919 44.3212 55.6167 44.3212Z" fill="white"/>
<path opacity="0.15" d="M3.18994 41.5322C10.6093 36.9511 27.1758 27.4185 44.9999 27.4185C62.8239 27.4185 79.3904 36.9511 86.8098 41.5322C79.0577 33.9484 63.542 22.8948 44.9999 22.8948C26.4578 22.8948 10.9421 33.9484 3.18994 41.5322Z" fill="black"/>
<g opacity="0.1">
<path opacity="0.1" d="M58.6063 57.3861C58.314 57.3861 58.0196 57.2895 57.7751 57.0905L56.2127 55.8196C55.6476 55.3599 55.5623 54.5295 56.0218 53.9644C56.4813 53.3992 57.3119 53.3138 57.8768 53.7735L59.4392 55.0444C60.0043 55.504 60.0896 56.3344 59.6301 56.8996C59.3696 57.2198 58.9893 57.3861 58.6063 57.3861Z" fill="black"/>
<path opacity="0.1" d="M61.7774 51.4345C61.6499 51.4345 61.5206 51.4159 61.3922 51.3768L59.466 50.7895C58.7694 50.5772 58.3771 49.8403 58.5894 49.1437C58.8016 48.4471 59.5385 48.0546 60.2353 48.2671L62.1615 48.8544C62.8581 49.0667 63.2504 49.8036 63.0381 50.5002C62.8649 51.0683 62.3423 51.4345 61.7774 51.4345Z" fill="black"/>
<path opacity="0.1" d="M43.3866 63.7838C43.3458 63.7838 43.305 63.7819 43.2637 63.7782C42.5386 63.7112 42.005 63.0689 42.0721 62.3438L42.2574 60.3385C42.3244 59.6132 42.9667 59.0811 43.6918 59.1467C44.4169 59.2137 44.9505 59.856 44.8834 60.5811L44.6981 62.5864C44.635 63.2705 44.0602 63.7838 43.3866 63.7838Z" fill="black"/>
<path opacity="0.1" d="M28.0086 50.6749C27.4206 50.6749 26.8846 50.2791 26.7321 49.6835C26.5512 48.9781 26.9764 48.2595 27.6818 48.0787L29.6326 47.5784C30.3382 47.3978 31.0568 47.8229 31.2373 48.5281C31.4182 49.2335 30.993 49.9521 30.2876 50.133L28.3368 50.6333C28.2273 50.6616 28.1171 50.6749 28.0086 50.6749Z" fill="black"/>
<path opacity="0.1" d="M36.7325 33.1775C36.2942 33.1775 35.8657 32.9594 35.615 32.5609L34.5426 30.8565C34.1546 30.24 34.3401 29.426 34.9566 29.0382C35.5727 28.6506 36.3872 28.8355 36.7748 29.4522L37.8473 31.1565C38.2352 31.773 38.0498 32.5871 37.4333 32.9748C37.2155 33.1121 36.9728 33.1775 36.7325 33.1775Z" fill="black"/>
<path opacity="0.1" d="M52.1876 32.5571C51.9818 32.5571 51.7731 32.509 51.578 32.407C50.9325 32.0699 50.6826 31.2731 51.0197 30.6278L51.9521 28.8429C52.2892 28.1972 53.0864 27.948 53.7313 28.2844C54.3768 28.6216 54.6268 29.4184 54.2896 30.0637L53.3573 31.8486C53.1221 32.2993 52.6629 32.5571 52.1876 32.5571Z" fill="black"/>
</g>
<path d="M88.5286 41.3827C88.0899 40.9367 87.6299 40.4843 87.1612 40.0373C86.6342 39.5347 85.7994 39.5542 85.2967 40.0816C84.7942 40.6087 84.8138 41.4433 85.341 41.9461C85.7896 42.3737 86.2294 42.8065 86.6485 43.2326C87.6074 44.207 87.6074 45.7925 86.6485 46.7672C83.9694 49.4899 78.2535 54.7095 70.0707 59.0777C66.4547 61.008 62.8208 62.525 59.1879 63.6248C64.7976 59.3414 68.4242 52.5868 68.4242 45.0001C68.4242 37.4283 64.8117 30.6853 59.221 26.4007C68.7436 29.2983 76.3494 34.4534 80.7739 37.9745C81.3434 38.4278 82.1731 38.3334 82.6268 37.7639C83.0805 37.194 82.9859 36.3643 82.4162 35.9108C75.6892 30.5574 61.8834 21.5765 45.0004 21.5765C36.2662 21.5765 27.4135 23.9382 18.6881 28.596C10.1959 33.1291 4.25681 38.5533 1.47244 41.3832C-0.490161 43.3776 -0.490161 46.6227 1.47244 48.6173C3.16697 50.3395 5.99494 52.9871 9.84384 55.8186C10.0792 55.9915 10.3531 56.075 10.6241 56.075C11.0293 56.075 11.4289 55.889 11.6873 55.5377C12.119 54.9509 11.9929 54.1256 11.4065 53.6941C7.69738 50.9656 4.9791 48.4215 3.35189 46.7677C2.393 45.7934 2.393 44.2078 3.35189 43.2331C6.03097 40.5105 11.7469 35.2908 19.9296 30.9227C23.5456 28.9924 27.1796 27.4754 30.8124 26.3755C25.2029 30.6585 21.5764 37.4132 21.5764 44.9999C21.5764 52.5673 25.1846 59.3069 30.7697 63.5919C25.9378 62.1266 21.1149 59.9417 16.4369 57.077C15.8158 56.6969 15.0041 56.8917 14.6235 57.5129C14.2431 58.1339 14.4384 58.9459 15.0594 59.3261C24.7787 65.2777 35.1321 68.4235 45.0001 68.4235C53.7343 68.4235 62.587 66.0619 71.3124 61.4042C79.8046 56.871 85.7437 51.4467 88.5281 48.6168C90.4911 46.6224 90.4911 43.3773 88.5286 41.3827ZM24.214 44.9997C24.214 33.5381 33.5388 24.2134 45.0004 24.2134C56.4621 24.2134 65.7869 33.5383 65.7869 44.9997C65.7869 56.4612 56.4623 65.7861 45.0004 65.7861C33.5386 65.7861 24.214 56.4614 24.214 44.9997ZM62.0496 39.2067C62.0496 35.6598 59.164 32.7742 55.6171 32.7742C53.9025 32.7742 52.3437 33.4499 51.1892 34.5473C49.3204 33.4356 47.2046 32.8513 45.0006 32.8513C38.3019 32.8513 32.8524 38.3009 32.8524 44.9994C32.8524 51.6979 38.3019 57.1475 45.0006 57.1475C51.5462 57.1475 56.8961 51.9433 57.1373 45.4557C59.9526 44.771 62.0496 42.23 62.0496 39.2067ZM45.0004 54.5106C39.7562 54.5106 35.4894 50.244 35.4894 44.9997C35.4894 39.7555 39.7562 35.4889 45.0004 35.4889C46.663 35.4889 48.2621 35.912 49.6847 36.721C49.3628 37.4861 49.1844 38.326 49.1844 39.2069C49.1844 42.3709 51.4813 45.007 54.4949 45.5396C54.2144 50.5333 50.0636 54.5106 45.0004 54.5106ZM55.6171 43.002C53.5244 43.002 51.822 41.2995 51.822 39.2069C51.822 37.1142 53.5244 35.4118 55.6171 35.4118C57.7098 35.4118 59.4122 37.1142 59.4122 39.2069C59.4122 41.2995 57.7098 43.002 55.6171 43.002Z" fill="black"/>
</g>
<defs>
<clipPath id="clip0">
<rect width="90" height="90" fill="white"/>
</clipPath>
</defs>
</svg>
