<svg width="36" height="36" viewBox="0 0 36 36" fill="none" xmlns="http://www.w3.org/2000/svg">
<path d="M36 23.7073C36 30.4964 31.5588 36 24.6 36C17.6412 36 12 31.0817 12 24.2927C12 17.5036 17.6412 12 24.6 12C31.5588 12 36 16.9183 36 23.7073Z" fill="#019934"/>
<path d="M14.8359 0C12.5097 0 10.6172 1.89253 10.6172 4.21875C10.6172 6.54497 12.5097 8.4375 14.8359 8.4375C17.1622 8.4375 19.0547 6.54497 19.0547 4.21875C19.0547 1.89253 17.1622 0 14.8359 0ZM14.8359 6.32812C13.6728 6.32812 12.7266 5.38186 12.7266 4.21875C12.7266 3.05564 13.6728 2.10938 14.8359 2.10938C15.999 2.10938 16.9453 3.05564 16.9453 4.21875C16.9453 5.38186 15.999 6.32812 14.8359 6.32812Z" fill="#00170C"/>
<path d="M28.6172 0C24.5463 0 21.2344 3.31193 21.2344 7.38281C21.2344 11.4537 24.5463 14.7656 28.6172 14.7656C32.6881 14.7656 36 11.4537 36 7.38281C36 3.31193 32.6881 0 28.6172 0ZM28.6172 12.6562C25.7094 12.6562 23.3438 10.2906 23.3438 7.38281C23.3438 4.47504 25.7094 2.10938 28.6172 2.10938C31.525 2.10938 33.8906 4.47504 33.8906 7.38281C33.8906 10.2906 31.525 12.6562 28.6172 12.6562Z" fill="#00170C"/>
<path d="M30.7266 6.32812H29.6719V5.27344C29.6719 4.69097 29.1997 4.21875 28.6172 4.21875C28.0347 4.21875 27.5625 4.69097 27.5625 5.27344V7.38281C27.5625 7.96528 28.0347 8.4375 28.6172 8.4375H30.7266C31.309 8.4375 31.7812 7.96528 31.7812 7.38281C31.7812 6.80034 31.309 6.32812 30.7266 6.32812Z" fill="#00170C"/>
<path d="M24.3984 19.0547H19.0547V12.6562C19.0547 10.33 17.1622 8.4375 14.8359 8.4375C12.5097 8.4375 10.6172 10.33 10.6172 12.6562V22.2188C10.6172 22.5885 10.6815 22.9435 10.7986 23.2735H8.05015C8.05015 23.2735 6.92712 14.2924 6.32735 9.42117C6.28945 7.70913 4.88503 6.32812 3.16406 6.32812C1.4194 6.32812 0 7.74752 0 9.49219C0 9.53571 0.00274219 9.57923 0.00808594 9.62248L2.11015 26.5094C2.14031 27.8532 3.01261 28.9926 4.21875 29.4204V34.9453C4.21875 35.5278 4.69097 36 5.27344 36C5.85591 36 6.32812 35.5278 6.32812 34.9453V29.6016H14.8359V34.9453C14.8359 35.5278 15.3082 36 15.8906 36C16.4731 36 16.9453 35.5278 16.9453 34.9453V29.4202C18.1729 28.9848 19.0547 27.8125 19.0547 26.4375C19.0547 26.0678 18.9904 25.7129 18.8733 25.3828H21.2344V32.8359C21.2344 34.5806 22.6538 36 24.3984 36C26.1431 36 27.5625 34.5806 27.5625 32.8359V22.2188C27.5625 20.4741 26.1431 19.0547 24.3984 19.0547ZM15.8906 27.4922H5.27344C4.69188 27.4922 4.21875 27.0191 4.21875 26.4375C4.21875 26.3389 4.33336 27.2928 2.11078 9.43791C2.13912 8.88145 2.60072 8.4375 3.16406 8.4375C3.74562 8.4375 4.21875 8.91063 4.21875 9.49219C4.21875 9.62367 6.07254 24.4588 6.07254 24.4588C6.13856 24.9866 6.58723 25.3828 7.11914 25.3828C7.53623 25.3828 15.4115 25.3828 15.8906 25.3828C16.4722 25.3828 16.9453 25.8559 16.9453 26.4375C16.9453 27.0191 16.4722 27.4922 15.8906 27.4922ZM25.4531 32.8359C25.4531 33.4175 24.98 33.8906 24.3984 33.8906C23.8169 33.8906 23.3438 33.4175 23.3438 32.8359V24.3281C23.3438 23.7457 22.8715 23.2734 22.2891 23.2734C21.9879 23.2734 14.263 23.2734 13.7805 23.2734C13.1993 23.273 12.7266 22.8001 12.7266 22.2188V12.6562C12.7266 11.4931 13.6728 10.5469 14.8359 10.5469C15.999 10.5469 16.9453 11.4931 16.9453 12.6562V20.1094C16.9453 20.6918 17.4175 21.1641 18 21.1641H24.3984C24.98 21.1641 25.4531 21.6372 25.4531 22.2188V32.8359Z" fill="#00170C"/>
</svg>
