<svg width="36" height="36" viewBox="0 0 36 36" fill="none" xmlns="http://www.w3.org/2000/svg">
<g clip-path="url(#clip0)">
<path d="M24 21.7073C24 28.4964 19.5588 34 12.6 34C5.64121 34 0 29.0817 0 22.2927C0 15.5036 5.64121 10 12.6 10C19.5588 10 24 14.9183 24 21.7073Z" fill="#019934"/>
<path d="M35.6846 17.538L20.38 2.49602C19.0676 1.206 16.9323 1.20607 15.62 2.49595L0.315427 17.538C-0.10005 17.9463 -0.105816 18.6141 0.302489 19.0295C0.710794 19.4448 1.37855 19.4508 1.79396 19.0424L2.98498 17.8718V29.881C2.98498 32.4122 5.04429 34.4715 7.57547 34.4715H28.4245C30.9557 34.4715 33.015 32.4122 33.015 29.881V17.8718L34.2061 19.0424C34.4114 19.2442 34.6784 19.3449 34.9452 19.3449C35.2182 19.3449 35.4911 19.2396 35.6975 19.0296C36.1058 18.6141 36.1001 17.9463 35.6846 17.538ZM30.9056 29.881C30.9056 31.249 29.7925 32.3621 28.4245 32.3621H7.57547C6.2074 32.3621 5.09436 31.249 5.09436 29.881V15.7987L17.0986 4.00035C17.2228 3.87822 17.3666 3.7866 17.5201 3.7255C17.9422 3.5576 18.4379 3.62053 18.8047 3.91443C18.8381 3.94115 18.8703 3.96977 18.9014 4.00035L30.9057 15.7986V29.881H30.9056Z" fill="#00170C"/>
<path d="M14.8308 13.8501V17.2442H11.4365C10.8541 17.2442 10.3818 17.7164 10.3818 18.2989V22.5082C10.3818 23.0907 10.8541 23.5629 11.4365 23.5629H14.8308V26.9569C14.8308 27.5393 15.303 28.0116 15.8855 28.0116H20.0948C20.6773 28.0116 21.1495 27.5393 21.1495 26.9569V23.5629H24.5432C25.1257 23.5629 25.5979 23.0907 25.5979 22.5082V18.2989C25.5979 17.7164 25.1257 17.2442 24.5432 17.2442H21.1495V13.8501C21.1495 13.2677 20.6773 12.7955 20.0948 12.7955H15.8855C15.303 12.7955 14.8308 13.2677 14.8308 13.8501ZM16.9402 18.2989V14.9048H19.0401V18.2989C19.0401 18.8814 19.5123 19.3536 20.0948 19.3536H23.4885V21.4535H20.0948C19.5123 21.4535 19.0401 21.9257 19.0401 22.5082V25.9022H16.9402V22.5082C16.9402 21.9257 16.4679 21.4535 15.8855 21.4535H12.4912V19.3536H15.8855C16.4679 19.3536 16.9402 18.8814 16.9402 18.2989Z" fill="#00170C"/>
</g>
<defs>
<clipPath id="clip0">
<rect width="36" height="36" fill="white"/>
</clipPath>
</defs>
</svg>
