<svg width="36" height="36" viewBox="0 0 36 36" fill="none" xmlns="http://www.w3.org/2000/svg">
<g clip-path="url(#clip0)">
<path d="M36 22.7073C36 29.4964 31.5588 35 24.6 35C17.6412 35 12 30.0817 12 23.2927C12 16.5036 17.6412 11 24.6 11C31.5588 11 36 15.9183 36 22.7073Z" fill="#019934"/>
<path d="M32.1051 7.31616L25.0978 0.308953C24.9001 0.111094 24.6318 0 24.3521 0H7.76517C5.46075 0 3.58594 1.87481 3.58594 4.17923V31.8208C3.58594 34.1252 5.46075 36 7.76517 36H28.2348C30.5393 36 32.4141 34.1252 32.4141 31.8208V8.06189C32.4141 7.78219 32.303 7.51388 32.1051 7.31616ZM25.4068 3.60091L28.8131 7.00727H25.4068V3.60091ZM28.2348 33.8906H7.76517C6.62386 33.8906 5.69531 32.9621 5.69531 31.8208V4.17923C5.69531 3.03792 6.62386 2.10938 7.76517 2.10938H23.2973V8.06189C23.2973 8.64436 23.7696 9.11658 24.352 9.11658H30.3047V31.8207C30.3047 32.9621 29.3761 33.8906 28.2348 33.8906Z" fill="#00170C"/>
<path d="M9.22046 9.38981H10.665V10.8343C10.665 11.4168 11.1372 11.889 11.7196 11.889C12.3021 11.889 12.7743 11.4168 12.7743 10.8343V9.38981H14.2188C14.8013 9.38981 15.2735 8.91759 15.2735 8.33512C15.2735 7.75266 14.8013 7.28044 14.2188 7.28044H12.7743V5.83594C12.7743 5.25347 12.3021 4.78125 11.7196 4.78125C11.1372 4.78125 10.665 5.25347 10.665 5.83594V7.28044H9.22046C8.63799 7.28044 8.16577 7.75266 8.16577 8.33512C8.16577 8.91759 8.63799 9.38981 9.22046 9.38981Z" fill="#00170C"/>
<path d="M26.8328 14.3117H9.22046C8.63799 14.3117 8.16577 14.7839 8.16577 15.3664C8.16577 15.9488 8.63799 16.4211 9.22046 16.4211H26.8328C27.4153 16.4211 27.8875 15.9488 27.8875 15.3664C27.8875 14.7839 27.4153 14.3117 26.8328 14.3117Z" fill="#00170C"/>
<path d="M26.8328 29.3516H9.22046C8.63799 29.3516 8.16577 29.8238 8.16577 30.4063C8.16577 30.9888 8.63799 31.461 9.22046 31.461H26.8328C27.4153 31.461 27.8875 30.9888 27.8875 30.4063C27.8875 29.8238 27.4153 29.3516 26.8328 29.3516Z" fill="#00170C"/>
<path d="M9.22046 20.1793H24.7235C25.3059 20.1793 25.7781 19.7071 25.7781 19.1246C25.7781 18.5422 25.3059 18.07 24.7235 18.07H9.22046C8.63799 18.07 8.16577 18.5422 8.16577 19.1246C8.16577 19.7071 8.63799 20.1793 9.22046 20.1793Z" fill="#00170C"/>
<path d="M26.8328 21.7965H9.22046C8.63799 21.7965 8.16577 22.2687 8.16577 22.8512C8.16577 23.4337 8.63799 23.9059 9.22046 23.9059H26.8328C27.4153 23.9059 27.8875 23.4337 27.8875 22.8512C27.8875 22.2687 27.4153 21.7965 26.8328 21.7965Z" fill="#00170C"/>
<path d="M9.22046 27.5938H23.1598C23.7423 27.5938 24.2145 27.1216 24.2145 26.5391C24.2145 25.9566 23.7423 25.4844 23.1598 25.4844H9.22046C8.63799 25.4844 8.16577 25.9566 8.16577 26.5391C8.16577 27.1216 8.63799 27.5938 9.22046 27.5938Z" fill="#00170C"/>
</g>
<defs>
<clipPath id="clip0">
<rect width="36" height="36" fill="white"/>
</clipPath>
</defs>
</svg>
